<svg width="120" height="120" viewBox="0 0 120 120" fill="none" xmlns="http://www.w3.org/2000/svg">
  <defs>
    <linearGradient id="blobGradient1" x1="0%" y1="100%" x2="100%" y2="0%">
      <stop offset="0%" style="stop-color:#a855f7"/>
      <stop offset="100%" style="stop-color:#06b6d4"/>
    </linearGradient>
    <linearGradient id="blobGradient2" x1="100%" y1="0%" x2="0%" y2="100%">
      <stop offset="0%" style="stop-color:#f472b6"/>
      <stop offset="100%" style="stop-color:#a855f7"/>
    </linearGradient>
  </defs>
  <!-- Impact rings -->
  <circle cx="60" cy="60" r="50" stroke="#22d3ee" stroke-width="2" fill="none" opacity="0.3"/>
  <!-- Twin blob 1 -->
  <ellipse cx="45" cy="55" rx="20" ry="20" fill="url(#blobGradient1)"/>
  <circle cx="40" cy="52" r="4" fill="white"/>
  <circle cx="50" cy="52" r="4" fill="white"/>
  <circle cx="40" cy="52" r="1.5" fill="#1a1a2e"/>
  <circle cx="50" cy="52" r="1.5" fill="#1a1a2e"/>
  <path d="M38 60 Q45 65 52 60" stroke="#1a1a2e" stroke-width="1.5" fill="none" stroke-linecap="round"/>
  <!-- Twin blob 2 -->
  <ellipse cx="75" cy="55" rx="20" ry="20" fill="url(#blobGradient2)"/>
  <circle cx="70" cy="52" r="4" fill="white"/>
  <circle cx="80" cy="52" r="4" fill="white"/>
  <circle cx="70" cy="52" r="1.5" fill="#1a1a2e"/>
  <circle cx="80" cy="52" r="1.5" fill="#1a1a2e"/>
  <path d="M68 60 Q75 65 82 60" stroke="#1a1a2e" stroke-width="1.5" fill="none" stroke-linecap="round"/>
  <!-- x2 badge -->
  <rect x="45" y="78" rx="8" ry="8" width="30" height="22" fill="#fbbf24"/>
  <text x="60" y="94" text-anchor="middle" font-family="Arial Black, sans-serif" font-size="14" font-weight="bold" fill="#1a1a2e">x2</text>
  <!-- Sparkles -->
  <path d="M20 30 L22 25 L24 30 L29 32 L24 34 L22 39 L20 34 L15 32 Z" fill="#fbbf24"/>
  <path d="M100 30 L102 25 L104 30 L109 32 L104 34 L102 39 L100 34 L95 32 Z" fill="#22d3ee"/>
</svg>