<svg width="120" height="120" viewBox="0 0 120 120" fill="none" xmlns="http://www.w3.org/2000/svg">
  <defs>
    <linearGradient id="phoneGradient" x1="0%" y1="0%" x2="100%" y2="100%">
      <stop offset="0%" style="stop-color:#374151"/>
      <stop offset="100%" style="stop-color:#1f2937"/>
    </linearGradient>
  </defs>
  <!-- Downward arrow -->
  <path d="M60 110 L72 95 L65 95 L65 80 L55 80 L55 95 L48 95 Z" fill="#22d3ee" stroke="#0e7490" stroke-width="2"/>
  <!-- Lowering motion lines -->
  <line x1="35" y1="70" x2="35" y2="85" stroke="#a855f7" stroke-width="2" stroke-linecap="round" opacity="0.6"/>
  <line x1="85" y1="70" x2="85" y2="85" stroke="#a855f7" stroke-width="2" stroke-linecap="round" opacity="0.6"/>
  <!-- Phone body -->
  <rect x="40" y="10" width="40" height="65" rx="8" fill="url(#phoneGradient)" stroke="#4b5563" stroke-width="2"/>
  <!-- Phone screen -->
  <rect x="44" y="17" width="32" height="50" rx="4" fill="#1a1a2e"/>
  <!-- Sleepy/relaxed face -->
  <!-- Closed sleepy eyes -->
  <path d="M47 38 Q52 42 57 38" stroke="white" stroke-width="2.5" fill="none" stroke-linecap="round"/>
  <path d="M63 38 Q68 42 73 38" stroke="white" stroke-width="2.5" fill="none" stroke-linecap="round"/>
  <!-- Peaceful small smile -->
  <path d="M54 52 Q60 56 66 52" stroke="#a855f7" stroke-width="2" fill="none" stroke-linecap="round"/>
  <!-- Zzz sleep indicator -->
  <text x="82" y="25" font-family="Arial, sans-serif" font-size="12" font-weight="bold" fill="#a855f7" opacity="0.8">z</text>
  <text x="90" y="18" font-family="Arial, sans-serif" font-size="10" font-weight="bold" fill="#a855f7" opacity="0.6">z</text>
  <text x="96" y="12" font-family="Arial, sans-serif" font-size="8" font-weight="bold" fill="#a855f7" opacity="0.4">z</text>
  <!-- Soft glow/aura -->
  <ellipse cx="60" cy="42" rx="25" ry="20" fill="#a855f7" opacity="0.1"/>
  <!-- Settling dust particles -->
  <circle cx="30" cy="95" r="2" fill="#374151" opacity="0.4"/>
  <circle cx="90" cy="95" r="2" fill="#374151" opacity="0.4"/>
  <circle cx="45" cy="100" r="1.5" fill="#374151" opacity="0.3"/>
  <circle cx="75" cy="100" r="1.5" fill="#374151" opacity="0.3"/>
</svg>