<svg width="120" height="120" viewBox="0 0 120 120" fill="none" xmlns="http://www.w3.org/2000/svg">
  <defs>
    <linearGradient id="phoneGradient" x1="0%" y1="0%" x2="100%" y2="100%">
      <stop offset="0%" style="stop-color:#374151"/>
      <stop offset="100%" style="stop-color:#1f2937"/>
    </linearGradient>
  </defs>
  <!-- Upward arrow -->
  <path d="M60 10 L72 25 L65 25 L65 40 L55 40 L55 25 L48 25 Z" fill="#22d3ee" stroke="#0e7490" stroke-width="2"/>
  <!-- Rising motion lines -->
  <line x1="35" y1="50" x2="35" y2="35" stroke="#a855f7" stroke-width="2" stroke-linecap="round" opacity="0.6"/>
  <line x1="85" y1="50" x2="85" y2="35" stroke="#a855f7" stroke-width="2" stroke-linecap="round" opacity="0.6"/>
  <!-- Phone body -->
  <rect x="40" y="45" width="40" height="65" rx="8" fill="url(#phoneGradient)" stroke="#4b5563" stroke-width="2"/>
  <!-- Phone screen -->
  <rect x="44" y="52" width="32" height="50" rx="4" fill="#1a1a2e"/>
  <!-- Excited face -->
  <ellipse cx="52" cy="70" rx="5" ry="6" fill="white"/>
  <ellipse cx="68" cy="70" rx="5" ry="6" fill="white"/>
  <circle cx="52" cy="68" r="2.5" fill="#1a1a2e"/>
  <circle cx="68" cy="68" r="2.5" fill="#1a1a2e"/>
  <!-- Sparkle eyes effect -->
  <circle cx="54" cy="67" r="1" fill="white"/>
  <circle cx="70" cy="67" r="1" fill="white"/>
  <!-- Big excited smile -->
  <path d="M50 82 Q60 92 70 82" stroke="#f472b6" stroke-width="2.5" fill="none" stroke-linecap="round"/>
  <!-- Rosy cheeks -->
  <ellipse cx="44" cy="77" rx="3" ry="2" fill="#f472b6" opacity="0.5"/>
  <ellipse cx="76" cy="77" rx="3" ry="2" fill="#f472b6" opacity="0.5"/>
  <!-- Excitement sparkles -->
  <path d="M25 55 L27 50 L29 55 L34 57 L29 59 L27 64 L25 59 L20 57 Z" fill="#fbbf24"/>
  <path d="M95 55 L97 50 L99 55 L104 57 L99 59 L97 64 L95 59 L90 57 Z" fill="#fbbf24"/>
  <path d="M60 115 L61 112 L62 115 L65 116 L62 117 L61 120 L60 117 L57 116 Z" fill="#22d3ee" opacity="0.5"/>
</svg>