<svg width="120" height="120" viewBox="0 0 120 120" fill="none" xmlns="http://www.w3.org/2000/svg">
  <defs>
    <linearGradient id="blobGradient" x1="0%" y1="100%" x2="100%" y2="0%">
      <stop offset="0%" style="stop-color:#a855f7"/>
      <stop offset="100%" style="stop-color:#06b6d4"/>
    </linearGradient>
  </defs>
  <!-- Main blob body -->
  <ellipse cx="60" cy="70" rx="28" ry="24" fill="url(#blobGradient)"/>
  <!-- Eyes -->
  <circle cx="50" cy="65" r="5" fill="white"/>
  <circle cx="70" cy="65" r="5" fill="white"/>
  <circle cx="51" cy="63" r="2" fill="#1a1a2e"/>
  <circle cx="71" cy="63" r="2" fill="#1a1a2e"/>
  <!-- Sparkle accents -->
  <path d="M85 45 L87 40 L89 45 L94 47 L89 49 L87 54 L85 49 L80 47 Z" fill="#fbbf24"/>
  <!-- Arrow pointing up -->
  <path d="M60 20 L72 35 L65 35 L65 50 L55 50 L55 35 L48 35 Z" fill="#22d3ee" stroke="#0e7490" stroke-width="2"/>
  <!-- Motion lines -->
  <line x1="40" y1="55" x2="40" y2="45" stroke="#a855f7" stroke-width="2" stroke-linecap="round" opacity="0.7"/>
  <line x1="80" y1="55" x2="80" y2="45" stroke="#a855f7" stroke-width="2" stroke-linecap="round" opacity="0.7"/>
</svg>